<?xml version="1.0" encoding="UTF-8"?>
<svg width="71px" height="62px" viewBox="0 0 71 62" version="1.1" xmlns="http://www.w3.org/2000/svg" xmlns:xlink="http://www.w3.org/1999/xlink">
    <!-- Generator: Sketch 53.1 (72631) - https://sketchapp.com -->
    <title>Group</title>
    <desc>Created with Sketch.</desc>
    <g id="Page-1" stroke="none" stroke-width="1" fill="none" fill-rule="evenodd">
        <g id="Group" transform="translate(35.376194, 27.622063) rotate(-1.000000) translate(-35.376194, -27.622063) translate(-7.623806, -7.377937)" fill="#F9B3BE" stroke="#F9B3BE">
            <path d="M34.1664876,4.95706252 C24.2253621,4.95706252 16.1664876,13.015937 16.1664876,22.9570625 L16.1664876,44.9570625 C16.1664876,54.898188 24.2253621,62.9570625 34.1664876,62.9570625 C44.1076131,62.9570625 52.1664876,54.898188 52.1664876,44.9570625 L52.1664876,22.9570625 C52.1664876,13.015937 44.1076131,4.95706252 34.1664876,4.95706252 Z" id="Rectangle" transform="translate(34.166488, 33.957063) rotate(-45.000000) translate(-34.166488, -33.957063) "></path>
            <path d="M34.2519847,5.33867281 C33.9210588,5.33867281 33.8202825,5.35813361 33.7174187,5.41314576 C33.64159,5.45369941 33.5850687,5.51022067 33.5445151,5.58604939 C33.4895029,5.68891318 33.4700421,5.78968946 33.4700421,6.12061541 L33.4700421,46.3386728 C33.4700421,56.2797983 41.5289166,64.3386728 51.4700421,64.3386728 C61.4111676,64.3386728 69.4700421,56.2797983 69.4700421,46.3386728 L69.4700421,6.12061541 C69.4700421,5.78968946 69.4505813,5.68891318 69.3955692,5.58604939 C69.3550155,5.51022067 69.2984943,5.45369941 69.2226655,5.41314576 C69.1198017,5.35813361 69.0190255,5.33867281 68.6880995,5.33867281 L34.2519847,5.33867281 Z" id="Rectangle" transform="translate(51.470042, 34.838673) scale(1, -1) rotate(-45.000000) translate(-51.470042, -34.838673) "></path>
        </g>
    </g>
</svg>